<svg id="Layer_1" data-name="Layer 1" xmlns="http://www.w3.org/2000/svg" viewBox="0 0 42 42"><defs><style>.cls-1{fill:#ffca28;}</style></defs><title>ico-capacity</title><path class="cls-1" d="M21,42h0A21,21,0,0,1,0,21H0A21,21,0,0,1,21,0h0A21,21,0,0,1,42,21h0A21,21,0,0,1,21,42Z"/><path d="M29.9,17.4H26.5a5.12,5.12,0,0,0-5.1,5.1v4.1l.3.2a24.4,24.4,0,0,0,6.9,1.1,15.66,15.66,0,0,0,6-1.1l.3-.1V22.6A4.94,4.94,0,0,0,29.9,17.4Z"/><circle cx="28.2" cy="12.9" r="4.9"/><path class="cls-1" d="M28.2,8.8a4.2,4.2,0,1,1,0,8.4A4.31,4.31,0,0,1,24,12.9a4.14,4.14,0,0,1,4.2-4.1m0-1.5A5.7,5.7,0,1,0,33.9,13a5.7,5.7,0,0,0-5.7-5.7Z"/><path d="M15.9,17.4H12.5a5.12,5.12,0,0,0-5.1,5.1v4.1l.3.2a24.4,24.4,0,0,0,6.9,1.1,15.66,15.66,0,0,0,6-1.1l.3-.1V22.6A4.94,4.94,0,0,0,15.9,17.4Z"/><circle cx="14.2" cy="12.9" r="4.9"/><path class="cls-1" d="M14.2,8.8a4.2,4.2,0,0,1,0,8.4A4.31,4.31,0,0,1,10,12.9a4.14,4.14,0,0,1,4.2-4.1m0-1.5A5.7,5.7,0,1,0,19.9,13a5.7,5.7,0,0,0-5.7-5.7Z"/><path d="M21.6,33.6a25.55,25.55,0,0,1-7.1-1.1h-.1l-.7-.5V27.4a5.8,5.8,0,0,1,5.8-5.8h3.4A5.66,5.66,0,0,1,27,23.3a5.83,5.83,0,0,1,1.7,4.1V32l-.7.4A15.18,15.18,0,0,1,21.6,33.6Z"/><path class="cls-1" d="M22.9,22.4A5.12,5.12,0,0,1,28,27.5v4.1l-.3.1a13.68,13.68,0,0,1-6,1.1,24.4,24.4,0,0,1-6.9-1.1l-.3-.2V27.4a5.12,5.12,0,0,1,5.1-5.1h3.3m0-1.4H19.5a6.59,6.59,0,0,0-6.6,6.6v5l.8.4.3.2.1.1h.1a24.22,24.22,0,0,0,7.3,1.2,15.7,15.7,0,0,0,6.7-1.3l.3-.1.9-.4V27.5a6.42,6.42,0,0,0-1.9-4.6,6.29,6.29,0,0,0-4.6-2Z"/><circle cx="21.2" cy="17.4" r="4.9"/><path class="cls-1" d="M21.2,13.3a4.2,4.2,0,1,1,0,8.4A4.31,4.31,0,0,1,17,17.4a4.14,4.14,0,0,1,4.2-4.1m0-1.5a5.7,5.7,0,1,0,5.7,5.7,5.7,5.7,0,0,0-5.7-5.7Z"/></svg>