<svg id="Layer_1" data-name="Layer 1" xmlns="http://www.w3.org/2000/svg" viewBox="0 0 42 42"><defs><style>.cls-1{fill:#ffca28;}.cls-2{fill:#16191c;}</style></defs><title>Untitled-4</title><rect class="cls-1" width="42" height="42" rx="21" ry="21"/><path class="cls-2" d="M434.14,305l-4.26-4.26a2.22,2.22,0,0,0-3.13.06l-2.14,2.14-.42-.23a20.07,20.07,0,0,1-8.9-8.9l-.23-.41L416.5,292l.71-.71a2.22,2.22,0,0,0,.06-3.13L413,283.86a2.22,2.22,0,0,0-3.13.06l-1.2,1.21,0,0a7,7,0,0,0-1,1.74,7.17,7.17,0,0,0-.44,1.77c-.56,4.66,1.57,8.92,7.34,14.7,8,8,14.43,7.38,14.7,7.35a7.18,7.18,0,0,0,1.77-.44,6.87,6.87,0,0,0,1.74-1l0,0,1.22-1.19a2.22,2.22,0,0,0,.05-3.13Z" transform="translate(-399.45 -276.65)"/></svg>