<svg id="Layer_1" data-name="Layer 1" xmlns="http://www.w3.org/2000/svg" viewBox="0 0 42 42"><defs><style>.cls-1{fill:#ffca28;}.cls-2{fill:none;stroke:#000;stroke-miterlimit:10;stroke-width:2.61px;}</style></defs><title>ico-calendar</title><path class="cls-1" d="M21,42h0A21,21,0,0,1,0,21H0A21,21,0,0,1,21,0h0A21,21,0,0,1,42,21h0A21,21,0,0,1,21,42Z"/><rect x="13.9" y="18.9" width="3.8" height="3.8"/><rect x="19.1" y="18.9" width="3.8" height="3.8"/><rect x="24.2" y="18.9" width="3.8" height="3.8"/><rect x="13.9" y="24" width="3.8" height="3.8"/><rect x="19.1" y="24" width="3.8" height="3.8"/><rect x="24.2" y="24" width="3.8" height="3.8"/><path d="M30.6,13.9V30.2H11.3V13.9H30.6m2.6-2.6H8.7V32.8H33.3V11.3Z"/><line class="cls-2" x1="15.8" y1="12.6" x2="15.8" y2="8.6"/><line class="cls-2" x1="26.1" y1="12.6" x2="26.1" y2="8.6"/><line class="cls-2" x1="8.7" y1="15.2" x2="33.2" y2="15.2"/></svg>