<svg id="Layer_1" data-name="Layer 1" xmlns="http://www.w3.org/2000/svg" viewBox="0 0 305 109.5"><defs><style>.cls-1{fill:#ffca28;}.cls-2{fill:#fff;}.cls-3{fill:#16191c;}</style></defs><title>Belgrade Nightlife logo</title><rect class="cls-1" y="48.1" width="305" height="61.4"/><path class="cls-2" d="M9.2,39.5V.7H28.3c7.9,0,12.6,3.6,12.6,9.7,0,4.5-3.4,7.8-7.9,8.4V19c5.2.1,9.6,4.1,9.6,9.2,0,6.8-5.4,11.3-13.7,11.3ZM20.7,16.2h4.4c2.9,0,4.8-1.5,4.8-3.9s-1.7-3.8-4.6-3.8H20.7Zm4.8,15.5c3.5,0,5.5-1.6,5.5-4.5s-2-4.4-5.5-4.4h-5v8.9Z"/><path class="cls-2" d="M73.8,39.5H46.4V.7H73.8V9.8h-16V16h15v8.2h-15v6.2h16Z"/><path class="cls-2" d="M105.8,39.5H79.2V.7H90.6V30.5h15.2Z"/><path class="cls-2" d="M127.2,40.2c-12.3,0-19.6-7.2-19.6-20.1C107.6,7.4,114.9,0,126.9,0c9.7,0,17,5.7,17.9,13.7H133.6A6.45,6.45,0,0,0,127,9c-4.8,0-7.7,4-7.7,10.9,0,7.1,3.3,11.3,8.3,11.3,3.7,0,6.4-2.1,6.7-5.2l.1-.5h-5.9V17.9h16.9V23C145.2,33.6,138.5,40.2,127.2,40.2Z"/><path class="cls-2" d="M161.1,39.5H149.7V.7H167c10.4,0,15.7,4.9,15.7,13.2,0,4.6-2.2,9-6.3,10.9l7.4,14.7H171l-6.1-13h-3.7v13Zm0-20.5h4.7c3.2,0,5.2-2,5.2-4.9a4.86,4.86,0,0,0-5.1-5h-4.7V19Z"/><path class="cls-2" d="M210.8,31.8H199l-2,7.7H185.4L198,.7h14.3L225,39.5H212.8Zm-9.7-8.1h7.7L205,9.6h-.2Z"/><path class="cls-2" d="M245.1.7c11.8,0,18.7,6.7,18.7,19.1s-6.9,19.7-18.7,19.7H228.5V.7Zm-5.2,29.7h3.6c5.7,0,8.7-3.5,8.7-10.6,0-6.5-3.2-10.1-8.7-10.1h-3.6Z"/><path class="cls-2" d="M295.7,39.5H268.3V.7h27.4V9.8h-16V16h15v8.2h-15v6.2h16Z"/><path class="cls-3" d="M12.1,97.6V58.8H21L36,78.9h.2V58.8H47V97.6H38.3L23.1,77.2h-.2V97.7H12.1Z"/><path class="cls-3" d="M52.3,97.6V58.8H63.7V97.6Z"/><path class="cls-3" d="M87.8,98.3c-12.3,0-19.6-7.2-19.6-20.1,0-12.7,7.3-20.1,19.3-20.1,9.7,0,17,5.7,17.9,13.7H94.1a6.45,6.45,0,0,0-6.6-4.7c-4.8,0-7.7,4-7.7,10.9,0,7.1,3.3,11.3,8.3,11.3,3.7,0,6.4-2.1,6.7-5.2l.1-.5H89V76h16.9v5.1C105.8,91.7,99.1,98.3,87.8,98.3Z"/><path class="cls-3" d="M135.4,97.6v-15H121.7v15H110.3V58.8h11.4V73.6h13.7V58.8h11.4V97.6Z"/><path class="cls-3" d="M160.9,97.6V67.9H150.7V58.8h31.9v9.1H172.4V97.7H160.9Z"/><path class="cls-3" d="M213.1,97.6H186.5V58.8h11.4V88.6h15.2v9Z"/><path class="cls-3" d="M217.4,97.6V58.8h11.4V97.6Z"/><path class="cls-3" d="M234.2,97.6V58.8h27.3v9.1H245.6v7.5H260V84H245.6V97.8H234.2Z"/><path class="cls-3" d="M292.9,97.6H265.5V58.8h27.4v9.1h-16v6.3h15v8.2h-15v6.2h16Z"/></svg>