<?xml version="1.0" encoding="utf-8"?>
<!-- Generator: Adobe Illustrator 16.0.0, SVG Export Plug-In . SVG Version: 6.00 Build 0)  -->
<!DOCTYPE svg PUBLIC "-//W3C//DTD SVG 1.1//EN" "http://www.w3.org/Graphics/SVG/1.1/DTD/svg11.dtd">
<svg version="1.1" id="Layer_1" xmlns="http://www.w3.org/2000/svg" xmlns:xlink="http://www.w3.org/1999/xlink" x="0px" y="0px"
	 width="173.403px" height="135.564px" viewBox="219.298 320.242 173.403 135.564"
	 enable-background="new 219.298 320.242 173.403 135.564" xml:space="preserve">
<title>ico-attractions-01</title>
<path fill="#FFFFFF" stroke="#000000" stroke-miterlimit="10" d="M392.638,455.806v-48.895h-45.193
	c-3.579,22.946-25.083,38.646-48.029,35.067c-18.071-2.819-32.248-16.996-35.067-35.067h-45.05v48.895H392.638z"/>
<path fill="#FFFFFF" stroke="#000000" stroke-miterlimit="10" d="M257.074,344.697h-37.775v48.895h45.193
	c3.58-22.947,25.083-38.646,48.03-35.067c18.071,2.819,32.247,16.996,35.066,35.067h45.113v-48.895h-37.839v-24.455h-97.789v24.439
	V344.697z M359.297,356.119h22.222v22.222h-22.222V356.119z"/>
<path fill="#FFFFFF" stroke="#000000" stroke-miterlimit="10" d="M305.968,429.133c15.956,0,28.89-12.934,28.89-28.89
	c0-15.955-12.935-28.89-28.89-28.89s-28.89,12.935-28.89,28.89C277.078,416.199,290.013,429.133,305.968,429.133L305.968,429.133z"
	/>
</svg>
