<svg xmlns="http://www.w3.org/2000/svg" viewBox="0 0 200 200"><defs><style>.cls-1{fill:#231f20;}.cls-2{fill:#fff;}.cls-3{fill:none;stroke:#fff;stroke-linecap:round;stroke-linejoin:round;stroke-width:0;}</style></defs><title>Icon-Asset 5</title><g id="Layer_2" data-name="Layer 2"><g id="Layer_1-2" data-name="Layer 1"><path class="cls-1" d="M0,0V200H200V0ZM131.59,147.93H68.41a38.54,38.54,0,0,1-7.82-22.87v-21h78.82v21A38.52,38.52,0,0,1,131.59,147.93ZM75.11,31.88l12-1.5,3.37,27-12,1.5Zm38.29,29.63,15.37,6.63a40.43,40.43,0,0,1,2.29,13.06H93.31A40.16,40.16,0,0,1,113.41,61.51Zm27.22-26.73-10.76,25L118.76,55l10.76-25Zm-1.22,54.54v6.61H60.59V89.32Zm8.13,14.89a8.85,8.85,0,0,1,0,17.42ZM132,65.09Zm-37.8.37a48.6,48.6,0,0,0-8.92,13.75l-.85,2H70.79a40.31,40.31,0,0,1,6.4-14l16.61-2.08ZM52.46,104.09v17.67a8.85,8.85,0,0,1,0-17.67Zm61-47h0ZM95,60.89h0Zm64.91,103.2H40.06V156H159.94Z"/><path class="cls-2" d="M52.46,121.76V104.09a8.85,8.85,0,0,0,0,17.67Z"/><path class="cls-2" d="M154.83,112.93a8.87,8.87,0,0,0-7.29-8.71v17.42A8.87,8.87,0,0,0,154.83,112.93Z"/><rect class="cls-2" x="76.75" y="31.02" width="12.1" height="27.19" transform="translate(-4.9 10.62) rotate(-7.13)"/><path class="cls-2" d="M70.79,81.19H84.42l.85-2a48.6,48.6,0,0,1,8.92-13.75l-.39-.33L77.19,67.21A40.31,40.31,0,0,0,70.79,81.19Z"/><line class="cls-3" x1="95.03" y1="60.89" x2="95.03" y2="60.89"/><rect class="cls-2" x="116.1" y="38.82" width="27.19" height="12.1" transform="translate(37.15 146.21) rotate(-66.68)"/><path class="cls-2" d="M93.31,81.19h37.76a40.43,40.43,0,0,0-2.29-13.06l-15.37-6.63A40.16,40.16,0,0,0,93.31,81.19Z"/><line class="cls-3" x1="131.99" y1="65.09" x2="131.99" y2="65.09"/><line class="cls-3" x1="113.42" y1="57.08" x2="113.42" y2="57.08"/><path class="cls-2" d="M139.41,104.07H60.59v21a38.54,38.54,0,0,0,7.82,22.87h63.18a38.52,38.52,0,0,0,7.82-22.87Z"/><rect class="cls-2" x="60.59" y="89.32" width="78.82" height="6.61"/><rect class="cls-2" x="40.06" y="156.03" width="119.88" height="8.05"/></g></g></svg>