<svg xmlns="http://www.w3.org/2000/svg" viewBox="0 0 200 200"><defs><style>.cls-1{fill:#231f20;}.cls-2{fill:#fff;}</style></defs><title>Icon-Asset 3</title><g id="Layer_2" data-name="Layer 2"><g id="Layer_1-2" data-name="Layer 1"><path class="cls-1" d="M0,0V200H200V0ZM91.82,66.28V47.79h16.37v18.5Zm19.56-38.49V39.66H89.59V27.79ZM76,108.46a49.54,49.54,0,0,1,13.45-34h21a49.57,49.57,0,0,1,13.44,34v39.47H76Zm83.9,55.62H40.06V156H159.94Z"/><path class="cls-2" d="M124,108.46a49.57,49.57,0,0,0-13.44-34h-21a49.54,49.54,0,0,0-13.45,34v39.47H124Zm-9,29H85.1V102.24h29.81Z"/><rect class="cls-2" x="91.81" y="47.79" width="16.37" height="18.5"/><rect class="cls-2" x="89.1" y="27.79" width="21.79" height="11.86"/><rect class="cls-2" x="93.22" y="110.37" width="13.55" height="18.97"/><path class="cls-1" d="M85.09,137.48h29.81V102.24H85.09Zm8.13-27.1h13.55v19H93.22Z"/><rect class="cls-2" x="40.06" y="156.03" width="119.88" height="8.05"/></g></g></svg>