<svg xmlns="http://www.w3.org/2000/svg" viewBox="0 0 200 200"><defs><style>.cls-1{fill:#231f20;}.cls-2{fill:#fff;}</style></defs><title>Icon-Asset 2</title><g id="Layer_2" data-name="Layer 2"><g id="Layer_1-2" data-name="Layer 1"><path class="cls-1" d="M0,0V200H200V0ZM108.19,38.35H91.82V31.63h16.37ZM90.63,73.22,91.82,72V46.48h16.37V72l1.19,1.19A49.61,49.61,0,0,1,124,108.46v39.47H76V108.46A49.58,49.58,0,0,1,90.63,73.22Zm69.31,90.86H40.06V156H159.94Z"/><path class="cls-2" d="M76,147.93H124V108.46a49.61,49.61,0,0,0-14.58-35.24L108.19,72V46.48H91.82V72l-1.19,1.19A49.58,49.58,0,0,0,76,108.46Z"/><rect class="cls-2" x="91.82" y="31.63" width="16.37" height="6.71"/><rect class="cls-2" x="40.06" y="156.03" width="119.88" height="8.05"/></g></g></svg>