<svg xmlns="http://www.w3.org/2000/svg" viewBox="0 0 200 200"><defs><style>.cls-1{fill:#231f20;}.cls-2{fill:#fff;}.cls-3{fill:none;stroke:#90a4ae;stroke-linecap:round;stroke-linejoin:round;stroke-width:0;}</style></defs><title>Icon-Asset 4</title><g id="Layer_2" data-name="Layer 2"><g id="Layer_1-2" data-name="Layer 1"><path class="cls-1" d="M0,0V200H200V0ZM116,34.84l3.23,1.08h0L122.47,37l-6.19,18.43H128.9l-8.69,91.77H79.79L71.1,55.44h38Zm43.92,129.24H40.06V156H159.94Z"/><rect class="cls-2" x="40.06" y="156.03" width="119.88" height="8.05"/><polygon class="cls-1" points="107.85 80.51 118.36 80.51 119.96 63.58 113.54 63.58 107.85 80.51"/><polygon class="cls-1" points="81.64 80.51 100.67 80.51 106.36 63.58 80.04 63.58 81.64 80.51"/><path class="cls-2" d="M79.79,147.21h40.42l8.69-91.77H116.27L122.47,37l-3.23-1.08L116,34.84l-6.92,20.6h-38Zm38.57-66.7H107.85l5.69-16.94H120Zm-17.69,0h-19L80,63.57h26.33Z"/><line class="cls-3" x1="119.24" y1="35.93" x2="119.24" y2="35.93"/></g></g></svg>