<svg id="Layer_1" data-name="Layer 1" xmlns="http://www.w3.org/2000/svg" viewBox="0 0 42 42"><defs><style>.cls-1{fill:#ffca28;}.cls-2{fill:none;stroke:#000;stroke-miterlimit:10;stroke-width:2.5px;}</style></defs><title>ico-age</title><path class="cls-1" d="M21,42h0A21,21,0,0,1,0,21H0A21,21,0,0,1,21,0h0A21,21,0,0,1,42,21h0A21,21,0,0,1,21,42Z"/><g id="_44-18Plus_movie" data-name="44-18Plus movie"><path d="M14.9,26.6V17.7H12.8V15.4h4.9V26.6Z"/><path d="M28.4,18.3A2.54,2.54,0,0,1,27,20.6a3.11,3.11,0,0,1,2,2.8c0,2-1.8,3.3-4.6,3.3s-4.6-1.3-4.6-3.2a3.09,3.09,0,0,1,2.1-2.9,2.79,2.79,0,0,1-1.5-2.4c0-1.8,1.6-2.9,4-2.9S28.4,16.4,28.4,18.3Zm-5.9,4.9c0,.9.7,1.5,1.9,1.5s1.9-.5,1.9-1.5-.7-1.4-1.9-1.4S22.5,22.2,22.5,23.2Zm.3-4.8c0,.8.6,1.2,1.6,1.2s1.6-.4,1.6-1.2-.6-1.3-1.6-1.3S22.8,17.6,22.8,18.4Z"/><path d="M20.9,8.3A12.7,12.7,0,1,1,8.2,21,12.72,12.72,0,0,1,20.9,8.3m0-2.3a15,15,0,1,0,15,15,15,15,0,0,0-15-15Z"/><polygon class="cls-1" points="29.1 3.7 25.5 6.3 25.5 13.4 28.5 13.4 28.5 16.4 35.5 16.4 38.2 12.9 29.1 3.7"/><line class="cls-2" x1="31.8" y1="5.9" x2="31.8" y2="14.4"/><line class="cls-2" x1="27.5" y1="10.2" x2="36" y2="10.2"/></g></svg>