<?xml version="1.0" encoding="utf-8"?>
<!-- Generator: Adobe Illustrator 21.0.0, SVG Export Plug-In . SVG Version: 6.00 Build 0)  -->
<svg version="1.1" id="Layer_1" xmlns="http://www.w3.org/2000/svg" xmlns:xlink="http://www.w3.org/1999/xlink" x="0px" y="0px"
	 viewBox="0 0 944.1 822.8" style="enable-background:new 0 0 944.1 822.8;" xml:space="preserve">
<style type="text/css">
	.st0{fill:none;stroke:#FFFFFF;stroke-width:2;stroke-miterlimit:10;}
</style>
<g>
	<polyline class="st0" points="601.3,222 577.3,285.1 536.3,327.7 	"/>
	<polyline class="st0" points="475.9,282.8 513.8,294.4 549.4,352.5 549.4,417.5 540.9,453.1 554.9,499.5 544.8,536.7 578.1,582.3 
		568.4,614.8 481.3,599.4 456.6,540.5 434.1,515 427.2,463.9 403.2,448.8 399.3,425.2 386.9,410.5 	"/>
	<polyline class="st0" points="548.3,423.7 674,423.7 589.7,340.9 549.9,313.5 	"/>
	<polyline class="st0" points="943.4,559.9 916.3,559.9 865.2,525.1 815.7,593.2 873.7,686 873.7,751.1 860.6,765 844.3,703.8 
		802.5,703.8 677.9,560.7 677.9,531.3 723.6,511.1 723.6,491.8 682.6,470.1 674,423.7 	"/>
	<polyline class="st0" points="589.7,340.9 643.9,288.2 725.1,314.6 762.3,368.6 801.7,351.7 815.7,302.9 850.5,339.3 881.5,429.1 
		943.4,429.1 	"/>
	<path class="st0" d="M186.5,0.9l170.3,112l32.5,126.9l67.1,15.5l-1,68.6l-23.7,26.8l-56.8,7.2c0,0-4.6,15-7.2,14.4
		c-2.6-0.5-137.2,17-137.2,17l-128,122.8l-63.5-133L1.2,173.7l174.9,23.7l75.3,34.6l25.3-55.2l47.5-6.2l24.2,11.4l21.7,52.6l16-7"/>
	<polyline class="st0" points="927.9,91.1 810.3,184.5 568.4,183.5 536.3,131.9 501.2,132.2 493.2,153.9 510,162.9 504.5,173.7 
		392.3,98.4 235,0.9 	"/>
	<polygon class="st0" points="157.8,490.8 244.8,412.1 368.3,393.1 372.2,400.6 	"/>
	<polyline class="st0" points="20.8,659.7 140,518.9 382.3,415.9 475.9,331.6 475.9,214.7 505.3,198.5 653.9,234.8 800.2,232.5 
		800.2,240.3 733.6,256.5 736.7,264.2 814.1,257.3 943.4,128 	"/>
	<polygon class="st0" points="393.9,137.6 464,186.6 450.6,226.8 408.3,220.6 390.3,147.9 	"/>
	<path class="st0" d="M345.1,822.3c2.3-3.9,15.5-72.7,15.5-72.7l-15.5-62.7l56.5-20.9l25.5-46.4L414,567.6l20.1-52.6"/>
	<polyline class="st0" points="540.1,614.8 549.9,659.7 558.7,704.6 613.9,767.3 581.9,792.8 581.9,822.3 	"/>
</g>
</svg>
